<svg width="165" height="260" viewBox="0 0 165 260" fill="none" xmlns="http://www.w3.org/2000/svg">
<g opacity="0.6">
<path d="M301.987 301.987C357.484 246.489 357.484 156.511 301.987 101.013C246.49 45.5161 156.511 45.5161 101.013 101.013C45.5163 156.511 45.5163 246.489 101.013 301.987C156.511 357.484 246.489 357.484 301.987 301.987Z" stroke="#0D5C67" stroke-opacity="0.2" stroke-width="2" stroke-miterlimit="10" stroke-linecap="round" stroke-linejoin="round"/>
<path d="M288.269 288.269C336.191 240.348 336.191 162.652 288.269 114.731C240.348 66.8094 162.652 66.8094 114.731 114.731C66.8095 162.652 66.8095 240.348 114.731 288.269C162.652 336.191 240.348 336.191 288.269 288.269Z" stroke="#0D5C67" stroke-opacity="0.2" stroke-width="2" stroke-miterlimit="10" stroke-linecap="round" stroke-linejoin="round"/>
<path d="M274.506 274.506C314.826 234.186 314.826 168.814 274.506 128.494C234.186 88.1742 168.814 88.1741 128.494 128.494C88.1741 168.814 88.1741 234.186 128.494 274.506C168.814 314.826 234.186 314.826 274.506 274.506Z" stroke="#0D5C67" stroke-opacity="0.2" stroke-width="2" stroke-miterlimit="10" stroke-linecap="round" stroke-linejoin="round"/>
<path d="M201.513 285.266C247.784 285.266 285.295 247.756 285.295 201.484C285.295 155.212 247.784 117.702 201.513 117.702C155.241 117.702 117.73 155.212 117.73 201.484C117.73 247.756 155.241 285.266 201.513 285.266Z" stroke="#0D5C67" stroke-opacity="0.2" stroke-width="2" stroke-miterlimit="10" stroke-linecap="round" stroke-linejoin="round"/>
</g>
</svg>
