<svg width="82" height="50" viewBox="0 0 82 50" fill="none" xmlns="http://www.w3.org/2000/svg">
<g opacity="0.3">
<mask id="mask0_36_1279" style="mask-type:alpha" maskUnits="userSpaceOnUse" x="0" y="29" width="7" height="7">
<path d="M3.2274 35.1766C5.00985 35.1766 6.45481 33.8731 6.45481 32.2652C6.45481 30.6572 5.00985 29.3538 3.2274 29.3538C1.44495 29.3538 0 30.6572 0 32.2652C0 33.8731 1.44495 35.1766 3.2274 35.1766Z" fill="url(#paint0_linear_36_1279)"/>
</mask>
<g mask="url(#mask0_36_1279)">
<path d="M3.2274 35.1766C5.00985 35.1766 6.45481 33.8731 6.45481 32.2652C6.45481 30.6572 5.00985 29.3538 3.2274 29.3538C1.44495 29.3538 0 30.6572 0 32.2652C0 33.8731 1.44495 35.1766 3.2274 35.1766Z" fill="#00517C"/>
</g>
<mask id="mask1_36_1279" style="mask-type:alpha" maskUnits="userSpaceOnUse" x="0" y="17" width="7" height="7">
<path d="M3.2274 23.0228C5.00985 23.0228 6.45481 21.7193 6.45481 20.1114C6.45481 18.5034 5.00985 17.2 3.2274 17.2C1.44495 17.2 0 18.5034 0 20.1114C0 21.7193 1.44495 23.0228 3.2274 23.0228Z" fill="url(#paint1_linear_36_1279)"/>
</mask>
<g mask="url(#mask1_36_1279)">
<path d="M3.2274 23.0228C5.00985 23.0228 6.45481 21.7193 6.45481 20.1114C6.45481 18.5034 5.00985 17.2 3.2274 17.2C1.44495 17.2 0 18.5034 0 20.1114C0 21.7193 1.44495 23.0228 3.2274 23.0228Z" fill="#00517C"/>
</g>
<mask id="mask2_36_1279" style="mask-type:alpha" maskUnits="userSpaceOnUse" x="0" y="2" width="7" height="7">
<path d="M3.2274 8.03111C5.00985 8.03111 6.45481 6.72759 6.45481 5.11966C6.45481 3.51173 5.00985 2.20825 3.2274 2.20825C1.44495 2.20825 0 3.51173 0 5.11966C0 6.72759 1.44495 8.03111 3.2274 8.03111Z" fill="url(#paint2_linear_36_1279)"/>
</mask>
<g mask="url(#mask2_36_1279)">
<path d="M3.2274 8.03111C5.00985 8.03111 6.45481 6.72759 6.45481 5.11966C6.45481 3.51173 5.00985 2.20825 3.2274 2.20825C1.44495 2.20825 0 3.51173 0 5.11966C0 6.72759 1.44495 8.03111 3.2274 8.03111Z" fill="#00517C"/>
</g>
<mask id="mask3_36_1279" style="mask-type:alpha" maskUnits="userSpaceOnUse" x="18" y="29" width="8" height="7">
<path d="M21.9188 35.1766C23.7013 35.1766 25.1462 33.8731 25.1462 32.2652C25.1462 30.6572 23.7013 29.3538 21.9188 29.3538C20.1364 29.3538 18.6914 30.6572 18.6914 32.2652C18.6914 33.8731 20.1364 35.1766 21.9188 35.1766Z" fill="url(#paint3_linear_36_1279)"/>
</mask>
<g mask="url(#mask3_36_1279)">
<path d="M21.9188 35.1766C23.7013 35.1766 25.1462 33.8731 25.1462 32.2652C25.1462 30.6572 23.7013 29.3538 21.9188 29.3538C20.1364 29.3538 18.6914 30.6572 18.6914 32.2652C18.6914 33.8731 20.1364 35.1766 21.9188 35.1766Z" fill="#00517C"/>
</g>
<mask id="mask4_36_1279" style="mask-type:alpha" maskUnits="userSpaceOnUse" x="18" y="2" width="8" height="7">
<path d="M21.9188 8.03111C23.7013 8.03111 25.1462 6.72759 25.1462 5.11966C25.1462 3.51173 23.7013 2.20825 21.9188 2.20825C20.1364 2.20825 18.6914 3.51173 18.6914 5.11966C18.6914 6.72759 20.1364 8.03111 21.9188 8.03111Z" fill="url(#paint4_linear_36_1279)"/>
</mask>
<g mask="url(#mask4_36_1279)">
<path d="M21.9188 8.03111C23.7013 8.03111 25.1462 6.72759 25.1462 5.11966C25.1462 3.51173 23.7013 2.20825 21.9188 2.20825C20.1364 2.20825 18.6914 3.51173 18.6914 5.11966C18.6914 6.72759 20.1364 8.03111 21.9188 8.03111Z" fill="#00517C"/>
</g>
<mask id="mask5_36_1279" style="mask-type:alpha" maskUnits="userSpaceOnUse" x="37" y="29" width="7" height="7">
<path d="M40.6102 35.1766C42.3927 35.1766 43.8376 33.8731 43.8376 32.2652C43.8376 30.6572 42.3927 29.3538 40.6102 29.3538C38.8278 29.3538 37.3828 30.6572 37.3828 32.2652C37.3828 33.8731 38.8278 35.1766 40.6102 35.1766Z" fill="url(#paint5_linear_36_1279)"/>
</mask>
<g mask="url(#mask5_36_1279)">
<path d="M40.6102 35.1766C42.3927 35.1766 43.8376 33.8731 43.8376 32.2652C43.8376 30.6572 42.3927 29.3538 40.6102 29.3538C38.8278 29.3538 37.3828 30.6572 37.3828 32.2652C37.3828 33.8731 38.8278 35.1766 40.6102 35.1766Z" fill="#00517C"/>
</g>
<mask id="mask6_36_1279" style="mask-type:alpha" maskUnits="userSpaceOnUse" x="37" y="2" width="7" height="7">
<path d="M40.6102 8.03111C42.3927 8.03111 43.8376 6.72759 43.8376 5.11966C43.8376 3.51173 42.3927 2.20825 40.6102 2.20825C38.8278 2.20825 37.3828 3.51173 37.3828 5.11966C37.3828 6.72759 38.8278 8.03111 40.6102 8.03111Z" fill="url(#paint6_linear_36_1279)"/>
</mask>
<g mask="url(#mask6_36_1279)">
<path d="M40.6102 8.03111C42.3927 8.03111 43.8376 6.72759 43.8376 5.11966C43.8376 3.51173 42.3927 2.20825 40.6102 2.20825C38.8278 2.20825 37.3828 3.51173 37.3828 5.11966C37.3828 6.72759 38.8278 8.03111 40.6102 8.03111Z" fill="#00517C"/>
</g>
<mask id="mask7_36_1279" style="mask-type:alpha" maskUnits="userSpaceOnUse" x="56" y="29" width="7" height="7">
<path d="M59.3055 35.1766C61.088 35.1766 62.5329 33.8731 62.5329 32.2652C62.5329 30.6572 61.088 29.3538 59.3055 29.3538C57.5231 29.3538 56.0781 30.6572 56.0781 32.2652C56.0781 33.8731 57.5231 35.1766 59.3055 35.1766Z" fill="url(#paint7_linear_36_1279)"/>
</mask>
<g mask="url(#mask7_36_1279)">
<path d="M59.3055 35.1766C61.088 35.1766 62.5329 33.8731 62.5329 32.2652C62.5329 30.6572 61.088 29.3538 59.3055 29.3538C57.5231 29.3538 56.0781 30.6572 56.0781 32.2652C56.0781 33.8731 57.5231 35.1766 59.3055 35.1766Z" fill="#00517C"/>
</g>
<mask id="mask8_36_1279" style="mask-type:alpha" maskUnits="userSpaceOnUse" x="56" y="2" width="7" height="7">
<path d="M59.3055 8.03111C61.088 8.03111 62.5329 6.72759 62.5329 5.11966C62.5329 3.51173 61.088 2.20825 59.3055 2.20825C57.5231 2.20825 56.0781 3.51173 56.0781 5.11966C56.0781 6.72759 57.5231 8.03111 59.3055 8.03111Z" fill="url(#paint8_linear_36_1279)"/>
</mask>
<g mask="url(#mask8_36_1279)">
<path d="M59.3055 8.03111C61.088 8.03111 62.5329 6.72759 62.5329 5.11966C62.5329 3.51173 61.088 2.20825 59.3055 2.20825C57.5231 2.20825 56.0781 3.51173 56.0781 5.11966C56.0781 6.72759 57.5231 8.03111 59.3055 8.03111Z" fill="#00517C"/>
</g>
<mask id="mask9_36_1279" style="mask-type:alpha" maskUnits="userSpaceOnUse" x="74" y="29" width="8" height="7">
<path d="M77.9969 35.1766C79.7794 35.1766 81.2243 33.8731 81.2243 32.2652C81.2243 30.6572 79.7794 29.3538 77.9969 29.3538C76.2145 29.3538 74.7695 30.6572 74.7695 32.2652C74.7695 33.8731 76.2145 35.1766 77.9969 35.1766Z" fill="url(#paint9_linear_36_1279)"/>
</mask>
<g mask="url(#mask9_36_1279)">
<path d="M77.9969 35.1766C79.7794 35.1766 81.2243 33.8731 81.2243 32.2652C81.2243 30.6572 79.7794 29.3538 77.9969 29.3538C76.2145 29.3538 74.7695 30.6572 74.7695 32.2652C74.7695 33.8731 76.2145 35.1766 77.9969 35.1766Z" fill="#00517C"/>
</g>
<mask id="mask10_36_1279" style="mask-type:alpha" maskUnits="userSpaceOnUse" x="74" y="2" width="8" height="7">
<path d="M77.9969 8.03111C79.7794 8.03111 81.2243 6.72759 81.2243 5.11966C81.2243 3.51173 79.7794 2.20825 77.9969 2.20825C76.2145 2.20825 74.7695 3.51173 74.7695 5.11966C74.7695 6.72759 76.2145 8.03111 77.9969 8.03111Z" fill="url(#paint10_linear_36_1279)"/>
</mask>
<g mask="url(#mask10_36_1279)">
<path d="M77.9969 8.03111C79.7794 8.03111 81.2243 6.72759 81.2243 5.11966C81.2243 3.51173 79.7794 2.20825 77.9969 2.20825C76.2145 2.20825 74.7695 3.51173 74.7695 5.11966C74.7695 6.72759 76.2145 8.03111 77.9969 8.03111Z" fill="#00517C"/>
</g>
<mask id="mask11_36_1279" style="mask-type:alpha" maskUnits="userSpaceOnUse" x="0" y="43" width="7" height="7">
<path d="M3.2274 49.7643C5.00985 49.7643 6.45481 48.4608 6.45481 46.8529C6.45481 45.2449 5.00985 43.9414 3.2274 43.9414C1.44495 43.9414 0 45.2449 0 46.8529C0 48.4608 1.44495 49.7643 3.2274 49.7643Z" fill="url(#paint11_linear_36_1279)"/>
</mask>
<g mask="url(#mask11_36_1279)">
<path d="M3.2274 49.7643C5.00985 49.7643 6.45481 48.4608 6.45481 46.8529C6.45481 45.2449 5.00985 43.9414 3.2274 43.9414C1.44495 43.9414 0 45.2449 0 46.8529C0 48.4608 1.44495 49.7643 3.2274 49.7643Z" fill="#00517C"/>
</g>
<mask id="mask12_36_1279" style="mask-type:alpha" maskUnits="userSpaceOnUse" x="18" y="43" width="8" height="7">
<path d="M21.9188 49.7643C23.7013 49.7643 25.1462 48.4608 25.1462 46.8529C25.1462 45.2449 23.7013 43.9414 21.9188 43.9414C20.1364 43.9414 18.6914 45.2449 18.6914 46.8529C18.6914 48.4608 20.1364 49.7643 21.9188 49.7643Z" fill="url(#paint12_linear_36_1279)"/>
</mask>
<g mask="url(#mask12_36_1279)">
<path d="M21.9188 49.7643C23.7013 49.7643 25.1462 48.4608 25.1462 46.8529C25.1462 45.2449 23.7013 43.9414 21.9188 43.9414C20.1364 43.9414 18.6914 45.2449 18.6914 46.8529C18.6914 48.4608 20.1364 49.7643 21.9188 49.7643Z" fill="#00517C"/>
</g>
<mask id="mask13_36_1279" style="mask-type:alpha" maskUnits="userSpaceOnUse" x="18" y="16" width="8" height="7">
<path d="M21.9188 22.6185C23.7013 22.6185 25.1462 21.315 25.1462 19.7071C25.1462 18.0992 23.7013 16.7957 21.9188 16.7957C20.1364 16.7957 18.6914 18.0992 18.6914 19.7071C18.6914 21.315 20.1364 22.6185 21.9188 22.6185Z" fill="url(#paint13_linear_36_1279)"/>
</mask>
<g mask="url(#mask13_36_1279)">
<path d="M21.9188 22.6185C23.7013 22.6185 25.1462 21.315 25.1462 19.7071C25.1462 18.0992 23.7013 16.7957 21.9188 16.7957C20.1364 16.7957 18.6914 18.0992 18.6914 19.7071C18.6914 21.315 20.1364 22.6185 21.9188 22.6185Z" fill="#00517C"/>
</g>
<mask id="mask14_36_1279" style="mask-type:alpha" maskUnits="userSpaceOnUse" x="37" y="43" width="7" height="7">
<path d="M40.6102 49.7643C42.3927 49.7643 43.8376 48.4608 43.8376 46.8529C43.8376 45.2449 42.3927 43.9414 40.6102 43.9414C38.8278 43.9414 37.3828 45.2449 37.3828 46.8529C37.3828 48.4608 38.8278 49.7643 40.6102 49.7643Z" fill="url(#paint14_linear_36_1279)"/>
</mask>
<g mask="url(#mask14_36_1279)">
<path d="M40.6102 49.7643C42.3927 49.7643 43.8376 48.4608 43.8376 46.8529C43.8376 45.2449 42.3927 43.9414 40.6102 43.9414C38.8278 43.9414 37.3828 45.2449 37.3828 46.8529C37.3828 48.4608 38.8278 49.7643 40.6102 49.7643Z" fill="#00517C"/>
</g>
<mask id="mask15_36_1279" style="mask-type:alpha" maskUnits="userSpaceOnUse" x="37" y="16" width="7" height="7">
<path d="M40.6102 22.6185C42.3927 22.6185 43.8376 21.315 43.8376 19.7071C43.8376 18.0992 42.3927 16.7957 40.6102 16.7957C38.8278 16.7957 37.3828 18.0992 37.3828 19.7071C37.3828 21.315 38.8278 22.6185 40.6102 22.6185Z" fill="url(#paint15_linear_36_1279)"/>
</mask>
<g mask="url(#mask15_36_1279)">
<path d="M40.6102 22.6185C42.3927 22.6185 43.8376 21.315 43.8376 19.7071C43.8376 18.0992 42.3927 16.7957 40.6102 16.7957C38.8278 16.7957 37.3828 18.0992 37.3828 19.7071C37.3828 21.315 38.8278 22.6185 40.6102 22.6185Z" fill="#00517C"/>
</g>
<mask id="mask16_36_1279" style="mask-type:alpha" maskUnits="userSpaceOnUse" x="56" y="43" width="7" height="7">
<path d="M59.3055 49.7643C61.088 49.7643 62.5329 48.4608 62.5329 46.8529C62.5329 45.2449 61.088 43.9414 59.3055 43.9414C57.5231 43.9414 56.0781 45.2449 56.0781 46.8529C56.0781 48.4608 57.5231 49.7643 59.3055 49.7643Z" fill="url(#paint16_linear_36_1279)"/>
</mask>
<g mask="url(#mask16_36_1279)">
<path d="M59.3055 49.7643C61.088 49.7643 62.5329 48.4608 62.5329 46.8529C62.5329 45.2449 61.088 43.9414 59.3055 43.9414C57.5231 43.9414 56.0781 45.2449 56.0781 46.8529C56.0781 48.4608 57.5231 49.7643 59.3055 49.7643Z" fill="#00517C"/>
</g>
<mask id="mask17_36_1279" style="mask-type:alpha" maskUnits="userSpaceOnUse" x="56" y="16" width="7" height="7">
<path d="M59.3055 22.6185C61.088 22.6185 62.5329 21.315 62.5329 19.7071C62.5329 18.0992 61.088 16.7957 59.3055 16.7957C57.5231 16.7957 56.0781 18.0992 56.0781 19.7071C56.0781 21.315 57.5231 22.6185 59.3055 22.6185Z" fill="url(#paint17_linear_36_1279)"/>
</mask>
<g mask="url(#mask17_36_1279)">
<path d="M59.3055 22.6185C61.088 22.6185 62.5329 21.315 62.5329 19.7071C62.5329 18.0992 61.088 16.7957 59.3055 16.7957C57.5231 16.7957 56.0781 18.0992 56.0781 19.7071C56.0781 21.315 57.5231 22.6185 59.3055 22.6185Z" fill="#00517C"/>
</g>
<mask id="mask18_36_1279" style="mask-type:alpha" maskUnits="userSpaceOnUse" x="74" y="43" width="8" height="7">
<path d="M77.9969 49.7643C79.7794 49.7643 81.2243 48.4608 81.2243 46.8529C81.2243 45.2449 79.7794 43.9414 77.9969 43.9414C76.2145 43.9414 74.7695 45.2449 74.7695 46.8529C74.7695 48.4608 76.2145 49.7643 77.9969 49.7643Z" fill="url(#paint18_linear_36_1279)"/>
</mask>
<g mask="url(#mask18_36_1279)">
<path d="M77.9969 49.7643C79.7794 49.7643 81.2243 48.4608 81.2243 46.8529C81.2243 45.2449 79.7794 43.9414 77.9969 43.9414C76.2145 43.9414 74.7695 45.2449 74.7695 46.8529C74.7695 48.4608 76.2145 49.7643 77.9969 49.7643Z" fill="#00517C"/>
</g>
<mask id="mask19_36_1279" style="mask-type:alpha" maskUnits="userSpaceOnUse" x="74" y="16" width="8" height="7">
<path d="M77.9969 22.6185C79.7794 22.6185 81.2243 21.315 81.2243 19.7071C81.2243 18.0992 79.7794 16.7957 77.9969 16.7957C76.2145 16.7957 74.7695 18.0992 74.7695 19.7071C74.7695 21.315 76.2145 22.6185 77.9969 22.6185Z" fill="url(#paint19_linear_36_1279)"/>
</mask>
<g mask="url(#mask19_36_1279)">
<path d="M77.9969 22.6185C79.7794 22.6185 81.2243 21.315 81.2243 19.7071C81.2243 18.0992 79.7794 16.7957 77.9969 16.7957C76.2145 16.7957 74.7695 18.0992 74.7695 19.7071C74.7695 21.315 76.2145 22.6185 77.9969 22.6185Z" fill="#00517C"/>
</g>
</g>
<defs>
<linearGradient id="paint0_linear_36_1279" x1="17.3883" y1="64.6605" x2="-19.5941" y2="-39.4065" gradientUnits="userSpaceOnUse">
<stop/>
<stop offset="1" stop-color="white"/>
</linearGradient>
<linearGradient id="paint1_linear_36_1279" x1="17.3883" y1="52.5067" x2="-19.5941" y2="-51.5603" gradientUnits="userSpaceOnUse">
<stop/>
<stop offset="1" stop-color="white"/>
</linearGradient>
<linearGradient id="paint2_linear_36_1279" x1="17.3883" y1="37.515" x2="-19.5941" y2="-66.552" gradientUnits="userSpaceOnUse">
<stop/>
<stop offset="1" stop-color="white"/>
</linearGradient>
<linearGradient id="paint3_linear_36_1279" x1="33.5632" y1="58.9122" x2="-3.41908" y2="-45.1548" gradientUnits="userSpaceOnUse">
<stop/>
<stop offset="1" stop-color="white"/>
</linearGradient>
<linearGradient id="paint4_linear_36_1279" x1="33.5632" y1="31.7667" x2="-3.41908" y2="-72.3003" gradientUnits="userSpaceOnUse">
<stop/>
<stop offset="1" stop-color="white"/>
</linearGradient>
<linearGradient id="paint5_linear_36_1279" x1="49.7381" y1="53.1638" x2="12.7558" y2="-50.9031" gradientUnits="userSpaceOnUse">
<stop/>
<stop offset="1" stop-color="white"/>
</linearGradient>
<linearGradient id="paint6_linear_36_1279" x1="49.7381" y1="26.0183" x2="12.7558" y2="-78.0486" gradientUnits="userSpaceOnUse">
<stop/>
<stop offset="1" stop-color="white"/>
</linearGradient>
<linearGradient id="paint7_linear_36_1279" x1="65.9169" y1="47.4156" x2="28.9346" y2="-56.6514" gradientUnits="userSpaceOnUse">
<stop/>
<stop offset="1" stop-color="white"/>
</linearGradient>
<linearGradient id="paint8_linear_36_1279" x1="65.9169" y1="20.2701" x2="28.9346" y2="-83.7969" gradientUnits="userSpaceOnUse">
<stop/>
<stop offset="1" stop-color="white"/>
</linearGradient>
<linearGradient id="paint9_linear_36_1279" x1="82.0918" y1="41.6672" x2="45.1095" y2="-62.3998" gradientUnits="userSpaceOnUse">
<stop/>
<stop offset="1" stop-color="white"/>
</linearGradient>
<linearGradient id="paint10_linear_36_1279" x1="82.0918" y1="14.5217" x2="45.1095" y2="-89.5453" gradientUnits="userSpaceOnUse">
<stop/>
<stop offset="1" stop-color="white"/>
</linearGradient>
<linearGradient id="paint11_linear_36_1279" x1="11.8683" y1="66.6223" x2="-25.114" y2="-37.4446" gradientUnits="userSpaceOnUse">
<stop/>
<stop offset="1" stop-color="white"/>
</linearGradient>
<linearGradient id="paint12_linear_36_1279" x1="28.0432" y1="60.874" x2="-8.93907" y2="-43.1929" gradientUnits="userSpaceOnUse">
<stop/>
<stop offset="1" stop-color="white"/>
</linearGradient>
<linearGradient id="paint13_linear_36_1279" x1="28.0432" y1="33.7283" x2="-8.93907" y2="-70.3387" gradientUnits="userSpaceOnUse">
<stop/>
<stop offset="1" stop-color="white"/>
</linearGradient>
<linearGradient id="paint14_linear_36_1279" x1="44.2181" y1="55.1257" x2="7.23586" y2="-48.9411" gradientUnits="userSpaceOnUse">
<stop/>
<stop offset="1" stop-color="white"/>
</linearGradient>
<linearGradient id="paint15_linear_36_1279" x1="44.2181" y1="27.98" x2="7.23586" y2="-76.0869" gradientUnits="userSpaceOnUse">
<stop/>
<stop offset="1" stop-color="white"/>
</linearGradient>
<linearGradient id="paint16_linear_36_1279" x1="60.3969" y1="49.3774" x2="23.4146" y2="-54.6895" gradientUnits="userSpaceOnUse">
<stop/>
<stop offset="1" stop-color="white"/>
</linearGradient>
<linearGradient id="paint17_linear_36_1279" x1="60.3969" y1="22.2317" x2="23.4146" y2="-81.8353" gradientUnits="userSpaceOnUse">
<stop/>
<stop offset="1" stop-color="white"/>
</linearGradient>
<linearGradient id="paint18_linear_36_1279" x1="76.5718" y1="43.6291" x2="39.5895" y2="-60.4379" gradientUnits="userSpaceOnUse">
<stop/>
<stop offset="1" stop-color="white"/>
</linearGradient>
<linearGradient id="paint19_linear_36_1279" x1="76.5718" y1="16.4834" x2="39.5895" y2="-87.5836" gradientUnits="userSpaceOnUse">
<stop/>
<stop offset="1" stop-color="white"/>
</linearGradient>
</defs>
</svg>
