<svg width="175" height="357" viewBox="0 0 175 357" fill="none" xmlns="http://www.w3.org/2000/svg">
<g opacity="0.6">
<path d="M60.75 342.75C123.849 279.652 123.849 177.349 60.75 114.25C-2.34854 51.1515 -104.651 51.1515 -167.75 114.25C-230.849 177.349 -230.849 279.651 -167.75 342.75C-104.651 405.849 -2.3485 405.849 60.75 342.75Z" stroke="#FF9E45" stroke-opacity="0.2" stroke-width="2" stroke-miterlimit="10" stroke-linecap="round" stroke-linejoin="round"/>
<path d="M46.9867 328.987C102.484 273.489 102.484 183.511 46.9867 128.013C-8.51049 72.5161 -98.4893 72.5161 -153.987 128.013C-209.484 183.511 -209.484 273.489 -153.987 328.987C-98.4893 384.484 -8.51053 384.484 46.9867 328.987Z" stroke="#FF9E45" stroke-opacity="0.2" stroke-width="2" stroke-miterlimit="10" stroke-linecap="round" stroke-linejoin="round"/>
<path d="M33.2693 315.269C81.1906 267.348 81.1906 189.652 33.2693 141.731C-14.6521 93.8094 -92.3479 93.8094 -140.269 141.731C-188.191 189.652 -188.191 267.348 -140.269 315.269C-92.3479 363.191 -14.6521 363.191 33.2693 315.269Z" stroke="#FF9E45" stroke-opacity="0.2" stroke-width="2" stroke-miterlimit="10" stroke-linecap="round" stroke-linejoin="round"/>
<path d="M19.5058 301.506C59.8258 261.186 59.8258 195.814 19.5057 155.494C-20.8143 115.174 -86.1859 115.174 -126.506 155.494C-166.826 195.814 -166.826 261.186 -126.506 301.506C-86.1859 341.826 -20.8142 341.826 19.5058 301.506Z" stroke="#FF9E45" stroke-opacity="0.2" stroke-width="2" stroke-miterlimit="10" stroke-linecap="round" stroke-linejoin="round"/>
<path d="M-53.4874 312.266C-7.21576 312.266 30.2948 274.756 30.2948 228.484C30.2948 182.212 -7.21576 144.702 -53.4874 144.702C-99.7591 144.702 -137.27 182.212 -137.27 228.484C-137.27 274.756 -99.7591 312.266 -53.4874 312.266Z" stroke="#FF9E45" stroke-opacity="0.2" stroke-width="2" stroke-miterlimit="10" stroke-linecap="round" stroke-linejoin="round"/>
</g>
</svg>
