<svg width="725" height="143" viewBox="0 0 725 143" fill="none" xmlns="http://www.w3.org/2000/svg">
<g style="mix-blend-mode:darken" opacity="0.2">
<path d="M126.2 37.4H86.2V141H39.8V37.4H7.07805e-08V0.799993H126.2V37.4ZM216.509 121.2H163.909L156.709 141H109.109L168.309 0.799993H215.909L272.909 141H223.509L216.509 121.2ZM205.109 88L190.709 47L175.909 88H205.109ZM409.569 0.799993V81.6C409.569 100.267 403.502 115.2 391.369 126.4C379.235 137.467 363.035 143 342.769 143C322.369 143 305.969 137.4 293.569 126.2C281.169 115 274.969 100.133 274.969 81.6V0.799993H321.369V81.6C321.369 88.2667 323.435 93.7333 327.569 98C331.835 102.267 336.969 104.4 342.969 104.4C348.835 104.4 353.635 102.333 357.369 98.2C361.235 94.0667 363.169 88.5333 363.169 81.6V0.799993H409.569ZM427.555 0.799993H498.555C515.488 0.799993 528.955 4.06666 538.955 10.6C549.088 17 554.155 25.5333 554.155 36.2C554.155 43.1333 552.021 49.3333 547.755 54.8C543.488 60.2667 537.755 64.0667 530.555 66.2C538.955 68.0667 545.688 72.2667 550.755 78.8C555.821 85.2 558.355 92.8 558.355 101.6C558.355 113.6 553.221 123.2 542.955 130.4C532.688 137.467 519.021 141 501.955 141H427.555V0.799993ZM473.755 34.8V54.8H495.955C499.155 54.8 501.688 53.8667 503.555 52C505.555 50.1333 506.555 47.6667 506.555 44.6C506.555 41.6667 505.555 39.3333 503.555 37.6C501.688 35.7333 499.155 34.8 495.955 34.8H473.755ZM473.755 85.6V107H495.955C500.221 107 503.621 106 506.155 104C508.821 101.867 510.155 99.1333 510.155 95.8C510.155 92.7333 508.821 90.2667 506.155 88.4C503.621 86.5333 500.221 85.6 495.955 85.6H473.755ZM667.681 121.2H615.081L607.881 141H560.281L619.481 0.799993H667.081L724.081 141H674.681L667.681 121.2ZM656.281 88L641.881 47L627.081 88H656.281Z" fill="#222222" fill-opacity="0.18" style="mix-blend-mode:overlay"/>
</g>
</svg>
