<svg width="103" height="103" viewBox="0 0 103 103" fill="none" xmlns="http://www.w3.org/2000/svg">
<mask id="mask0_47_12" style="mask-type:alpha" maskUnits="userSpaceOnUse" x="10" y="15" width="78" height="80">
<path d="M35.4409 25.8279C35.3888 20.3177 35.3628 17.5626 36.3929 16.4006C37.285 15.3945 38.6196 14.8989 39.9521 15.079C41.4909 15.287 43.2693 17.3914 46.8262 21.6003L56.5203 33.0715C57.0309 33.6756 57.2862 33.9777 57.6043 34.1562C57.8854 34.3139 58.2003 34.402 58.5224 34.413C58.887 34.4255 59.262 34.2998 60.0119 34.0482L74.2511 29.2723C79.4756 27.52 82.0878 26.6438 83.5112 27.2645C84.7437 27.802 85.6274 28.9182 85.8679 30.2411C86.1457 31.7689 84.6938 34.1105 81.7901 38.7939L73.876 51.5584C73.4592 52.2306 73.2508 52.5668 73.1793 52.9245C73.1162 53.2406 73.1297 53.5672 73.2187 53.877C73.3195 54.2277 73.555 54.5454 74.026 55.1809L82.9683 67.2474C86.2493 71.6746 87.8898 73.8882 87.7393 75.4337C87.609 76.772 86.8206 77.9574 85.6367 78.595C84.2695 79.3312 81.5938 78.674 76.2424 77.3597L61.657 73.7773C60.8889 73.5887 60.5048 73.4943 60.1425 73.5369C59.8224 73.5745 59.5159 73.6883 59.2488 73.8688C58.9465 74.073 58.7171 74.3951 58.2582 75.0394L49.5456 87.2728C46.349 91.7613 44.7506 94.0056 43.2343 94.3401C41.9212 94.6297 40.5502 94.2462 39.578 93.3173C38.4553 92.2445 38.2535 89.4967 37.8498 84.001L36.7497 69.0225C36.6918 68.2336 36.6628 67.8392 36.5103 67.5078C36.3756 67.2149 36.1727 66.9586 35.9186 66.7604C35.6309 66.536 35.2537 66.4173 34.4991 66.18L20.1721 61.6742C14.9155 60.021 12.2871 59.1944 11.5004 57.8556C10.8192 56.6963 10.7603 55.2739 11.3434 54.0622C12.0167 52.663 14.5677 51.6219 19.6696 49.5398L33.5751 43.8649C34.3074 43.566 34.6736 43.4166 34.9417 43.1692C35.1785 42.9506 35.3596 42.6784 35.4696 42.3754C35.5942 42.0325 35.5904 41.637 35.5829 40.8461L35.4409 25.8279Z" fill="#FDE85A"/>
</mask>
<g mask="url(#mask0_47_12)">
<g filter="url(#filter0_iii_47_12)">
<path d="M35.4409 25.8279C35.3888 20.3177 35.3628 17.5626 36.3929 16.4006C37.285 15.3945 38.6196 14.8989 39.9521 15.079C41.4909 15.287 43.2693 17.3914 46.8262 21.6003L56.5203 33.0715C57.0309 33.6756 57.2862 33.9777 57.6043 34.1562C57.8854 34.3139 58.2003 34.402 58.5224 34.413C58.887 34.4255 59.262 34.2998 60.0119 34.0482L74.2511 29.2723C79.4756 27.52 82.0878 26.6438 83.5112 27.2645C84.7437 27.802 85.6274 28.9182 85.8679 30.2411C86.1457 31.7689 84.6938 34.1105 81.7901 38.7939L73.876 51.5584C73.4592 52.2306 73.2508 52.5668 73.1793 52.9245C73.1162 53.2406 73.1297 53.5672 73.2187 53.877C73.3195 54.2277 73.555 54.5454 74.026 55.1809L82.9683 67.2474C86.2493 71.6746 87.8898 73.8882 87.7393 75.4337C87.609 76.772 86.8206 77.9574 85.6367 78.595C84.2695 79.3312 81.5938 78.674 76.2424 77.3597L61.657 73.7773C60.8889 73.5887 60.5048 73.4943 60.1425 73.5369C59.8224 73.5745 59.5159 73.6883 59.2488 73.8688C58.9465 74.073 58.7171 74.3951 58.2582 75.0394L49.5456 87.2728C46.349 91.7613 44.7506 94.0056 43.2343 94.3401C41.9212 94.6297 40.5502 94.2462 39.578 93.3173C38.4553 92.2445 38.2535 89.4967 37.8498 84.001L36.7497 69.0225C36.6918 68.2336 36.6628 67.8392 36.5103 67.5078C36.3756 67.2149 36.1727 66.9586 35.9186 66.7604C35.6309 66.536 35.2537 66.4173 34.4991 66.18L20.1721 61.6742C14.9155 60.021 12.2871 59.1944 11.5004 57.8556C10.8192 56.6963 10.7603 55.2739 11.3434 54.0622C12.0167 52.663 14.5677 51.6219 19.6696 49.5398L33.5751 43.8649C34.3074 43.566 34.6736 43.4166 34.9417 43.1692C35.1785 42.9506 35.3596 42.6784 35.4696 42.3754C35.5942 42.0325 35.5904 41.637 35.5829 40.8461L35.4409 25.8279Z" fill="#D10B0B"/>
</g>
<g style="mix-blend-mode:multiply" opacity="0.7" filter="url(#filter1_f_47_12)">
<path fill-rule="evenodd" clip-rule="evenodd" d="M37.0264 66.451L29.6316 69.1969L34.3437 112.635L61.8268 79.4422L104.313 86.6539L79.5329 50.6673L72.1381 53.4132C74.6348 58.8546 75.8477 61.7194 75.341 63.7824C74.8659 65.7169 73.537 67.3305 71.7294 68.1676C69.6512 69.1301 66.2753 68.3095 59.5234 66.6684L59.5234 66.6684L56.8415 66.0165L55.2351 68.2607C51.1906 73.9108 49.1684 76.7359 46.9657 77.363C45.0498 77.9085 42.9899 77.5533 41.3673 76.3977C39.637 75.1654 38.6862 72.2032 37.0264 66.451Z" fill="#C5916C"/>
</g>
<mask id="mask1_47_12" style="mask-type:alpha" maskUnits="userSpaceOnUse" x="15" y="19" width="67" height="45">
<path d="M55.1714 35.7509L43.8674 22.3516C42.0866 20.2407 41.1963 19.1853 40.4263 19.081C39.7596 18.9907 39.0917 19.2387 38.6456 19.7422C38.1303 20.3238 38.1445 21.7045 38.173 24.466L38.3537 41.9957C38.3619 42.7873 38.3659 43.1831 38.2415 43.5263C38.1316 43.8295 37.9506 44.102 37.7136 44.3208C37.4454 44.5685 37.079 44.7181 36.3461 45.0172L20.1383 51.6333C17.5149 52.7042 16.2032 53.2397 15.8651 53.9284C15.5691 54.5316 15.5886 55.2217 15.9183 55.8072C16.2948 56.4757 17.6403 56.9381 20.3312 57.8628C31.6606 61.7561 43.7615 65.5641 55.1089 61.3505C66.4563 57.1369 73.1392 46.3541 79.1819 36.0101C80.6172 33.5531 81.3349 32.3247 81.1838 31.5724C81.0515 30.9137 80.6158 30.3781 79.9979 30.1143C79.2922 29.8131 77.9489 30.2636 75.2624 31.1644L58.6645 36.7299C57.9139 36.9815 57.5387 37.1073 57.1738 37.0947C56.8515 37.0836 56.5365 36.9953 56.2553 36.8373C55.937 36.6585 55.6818 36.356 55.1714 35.7509L55.1714 35.7509Z" fill="url(#paint0_linear_47_12)"/>
</mask>
<g mask="url(#mask1_47_12)">
<path d="M55.4291 32.0431L41.224 15.2356L41.2239 15.2355C39.4457 13.1315 38.5565 12.0794 37.7871 11.9755C37.1209 11.8854 36.4536 12.1332 36.0076 12.6362C35.4926 13.2172 35.5055 14.5946 35.5314 17.3493L35.7385 39.3547C35.746 40.1456 35.7497 40.5411 35.6252 40.884C35.5151 41.1869 35.3341 41.4591 35.0972 41.6777C34.8291 41.9251 34.4629 42.0745 33.7306 42.3734L13.354 50.6891C10.7376 51.7569 9.42949 52.2907 9.09135 52.9795C8.79508 53.5831 8.81462 54.2727 9.14459 54.8585C9.52119 55.5271 10.8653 55.9887 13.5535 56.9119L13.5535 56.9119C27.0355 61.5422 41.5332 66.3915 55.1089 61.3505C68.6846 56.3095 76.5038 43.1734 83.6965 30.8661C85.1306 28.4121 85.8477 27.1851 85.6967 26.4328C85.5644 25.7736 85.1291 25.2383 84.5107 24.9744C83.805 24.6732 82.4654 25.1225 79.7863 26.0211L58.9205 33.0197C58.1707 33.2713 57.7957 33.397 57.4311 33.3845C57.109 33.3735 56.7942 33.2855 56.5131 33.1277C56.1949 32.9492 55.9396 32.6472 55.4291 32.0431Z" fill="#CA3B0D"/>
</g>
</g>
<defs>
<filter id="filter0_iii_47_12" x="10.9443" y="10.5039" width="76.8045" height="85.9482" filterUnits="userSpaceOnUse" color-interpolation-filters="sRGB">
<feFlood flood-opacity="0" result="BackgroundImageFix"/>
<feBlend mode="normal" in="SourceGraphic" in2="BackgroundImageFix" result="shape"/>
<feColorMatrix in="SourceAlpha" type="matrix" values="0 0 0 0 0 0 0 0 0 0 0 0 0 0 0 0 0 0 127 0" result="hardAlpha"/>
<feOffset dy="-4.53878"/>
<feGaussianBlur stdDeviation="2.52154"/>
<feComposite in2="hardAlpha" operator="arithmetic" k2="-1" k3="1"/>
<feColorMatrix type="matrix" values="0 0 0 0 0.0478125 0 0 0 0 0.457508 0 0 0 0 0.675 0 0 0 0.55 0"/>
<feBlend mode="multiply" in2="shape" result="effect1_innerShadow_47_12"/>
<feColorMatrix in="SourceAlpha" type="matrix" values="0 0 0 0 0 0 0 0 0 0 0 0 0 0 0 0 0 0 127 0" result="hardAlpha"/>
<feOffset dy="-2.01724"/>
<feGaussianBlur stdDeviation="1.00862"/>
<feComposite in2="hardAlpha" operator="arithmetic" k2="-1" k3="1"/>
<feColorMatrix type="matrix" values="0 0 0 0 0 0 0 0 0 0.317647 0 0 0 0 0.486275 0 0 0 1 0"/>
<feBlend mode="lighten" in2="effect1_innerShadow_47_12" result="effect2_innerShadow_47_12"/>
<feColorMatrix in="SourceAlpha" type="matrix" values="0 0 0 0 0 0 0 0 0 0 0 0 0 0 0 0 0 0 127 0" result="hardAlpha"/>
<feOffset dy="2.01724"/>
<feGaussianBlur stdDeviation="1.51293"/>
<feComposite in2="hardAlpha" operator="arithmetic" k2="-1" k3="1"/>
<feColorMatrix type="matrix" values="0 0 0 0 0 0 0 0 0 0.317647 0 0 0 0 0.486275 0 0 0 0.75 0"/>
<feBlend mode="normal" in2="effect2_innerShadow_47_12" result="effect3_innerShadow_47_12"/>
</filter>
<filter id="filter1_f_47_12" x="22.5713" y="43.607" width="88.8024" height="76.0887" filterUnits="userSpaceOnUse" color-interpolation-filters="sRGB">
<feFlood flood-opacity="0" result="BackgroundImageFix"/>
<feBlend mode="normal" in="SourceGraphic" in2="BackgroundImageFix" result="shape"/>
<feGaussianBlur stdDeviation="3.53016" result="effect1_foregroundBlur_47_12"/>
</filter>
<linearGradient id="paint0_linear_47_12" x1="38.0805" y1="15.492" x2="62.1309" y2="80.2612" gradientUnits="userSpaceOnUse">
<stop offset="0.364964" stop-color="#FFFFE8"/>
<stop offset="0.833333" stop-color="#FFFFE8" stop-opacity="0"/>
</linearGradient>
</defs>
</svg>
