<svg width="20" height="20" viewBox="0 0 20 20" fill="none" xmlns="http://www.w3.org/2000/svg">
<path d="M8.85602 11.144C7.68602 9.974 6.80402 8.664 6.21802 7.335C6.09402 7.054 6.16702 6.725 6.38402 6.508L7.20302 5.69C7.87402 5.019 7.87402 4.07 7.28802 3.484L6.11402 2.31C5.33302 1.529 4.06702 1.529 3.28602 2.31L2.63402 2.962C1.89302 3.703 1.58402 4.772 1.78402 5.832C2.27802 8.445 3.79602 11.306 6.24502 13.755C8.69402 16.204 11.555 17.722 14.168 18.216C15.228 18.416 16.297 18.107 17.038 17.366L17.689 16.715C18.47 15.934 18.47 14.668 17.689 13.887L16.516 12.714C15.93 12.128 14.98 12.128 14.395 12.714L13.492 13.618C13.275 13.835 12.946 13.908 12.665 13.784C11.336 13.197 10.026 12.314 8.85602 11.144V11.144Z" stroke="#1E1E1E" stroke-width="1.5" stroke-linecap="round" stroke-linejoin="round"/>
</svg>
