<svg width="35" height="34" viewBox="0 0 35 34" fill="none" xmlns="http://www.w3.org/2000/svg">
<g clip-path="url(#clip0_10_1979)">
<path d="M26.289 8.16275C23.9571 5.8295 20.8561 4.54316 17.5524 4.54175C10.7425 4.54175 5.20189 10.0795 5.20048 16.8866C5.19764 19.0527 5.76573 21.1819 6.84806 23.059L5.09564 29.4567L11.6435 27.7397C13.4554 28.7257 15.4841 29.2427 17.5467 29.2427H17.5524C24.3595 29.2427 29.9001 23.7036 29.9029 16.8965C29.9043 13.5985 28.6208 10.4974 26.289 8.16275Z" stroke="#43D854" stroke-width="1.5" stroke-linecap="round" stroke-linejoin="round"/>
<path d="M19.0512 19.2099L19.6264 18.6389C20.1548 18.1148 20.9906 18.0482 21.5998 18.476C22.1891 18.8897 22.7218 19.2609 23.2176 19.6065C24.0053 20.1534 24.1002 21.2754 23.4216 21.9525L22.913 22.4611" stroke="#43D854" stroke-width="1.5" stroke-linecap="round" stroke-linejoin="round"/>
<path d="M12.0387 11.5868L12.5473 11.0782C13.2244 10.4011 14.3464 10.496 14.8933 11.2822C15.2375 11.7781 15.6087 12.3107 16.0238 12.9001C16.4516 13.5092 16.3864 14.3451 15.8609 14.8735L15.2899 15.4486" stroke="#43D854" stroke-width="1.5" stroke-linecap="round" stroke-linejoin="round"/>
<path d="M22.913 22.4611C20.815 24.5493 17.2889 22.7756 14.5051 19.9905" stroke="#43D854" stroke-width="1.5" stroke-linecap="round" stroke-linejoin="round"/>
<path d="M14.508 19.9946C11.7242 17.2094 9.95056 13.6848 12.0387 11.5867" stroke="#43D854" stroke-width="1.5" stroke-linecap="round" stroke-linejoin="round"/>
<path d="M15.29 15.4485C15.7419 16.1611 16.3213 16.8666 16.9758 17.5211L16.9786 17.5239C17.6331 18.1784 18.3386 18.7578 19.0512 19.2097" stroke="#43D854" stroke-width="1.5" stroke-linecap="round" stroke-linejoin="round"/>
</g>
<defs>
<clipPath id="clip0_10_1979">
<rect width="34" height="34" fill="white" transform="translate(0.5)"/>
</clipPath>
</defs>
</svg>
